# xmcd CD database file generated by Grip 3.0.4
# 
# Track frame offsets:
#       150
#       18090
#       36957
#       56708
#       72419
#       89868
#       106175
#       125831
#       146343
#       166285
#       181215
#       196440
#       216640
#       235426
# 
# Disc length: 3308 seconds
# 
# Revision: 3
# Processed by: cddbd v1.4PL0 Copyright (c) Steve Scherf et al.
# Submitted via: Grip 3.0.4
# 
DISCID=d60cea0e
DTITLE=Leuteris Pantazis - Ston Ebdomo Oyrano
DYEAR=2000
DGENRE=Folk
TTITLE0=Ta kitrina triantafulla
TTITLE1=Etsi nomizei
TTITLE2=Parel8on
TTITLE3=Apolyto dikaio
TTITLE4=8rypsala
TTITLE5=Siwph
TTITLE6=Efyges kai pe8ana
TTITLE7=Mono me sena trelainomai
TTITLE8=Isws ftaine ta tragoydia
TTITLE9=Swma anasa moy kai aima
TTITLE10=Kai s' agapw thn kyriakh
TTITLE11=S' agapw...
TTITLE12=Kai sy den hr8es
TTITLE13=Ston ebdomo ourano
EXTD=
EXTT0=
EXTT1=
EXTT2=
EXTT3=
EXTT4=
EXTT5=
EXTT6=
EXTT7=
EXTT8=
EXTT9=
EXTT10=
EXTT11=
EXTT12=
EXTT13=
PLAYORDER=
